<svg width="45" height="48" viewBox="0 0 45 48" fill="none" xmlns="http://www.w3.org/2000/svg">
<path d="M28.5508 44.9545C25.3562 48.4709 19.7349 48.5046 16.4979 45.0266C15.0521 43.4732 16.1751 40.9848 18.3277 40.9719L26.672 40.9219C28.8247 40.909 29.9777 43.3838 28.5508 44.9545Z" fill="white"/>
<path fill-rule="evenodd" clip-rule="evenodd" d="M36.4097 40.6352C34.725 41.9442 32.3457 41.5117 30.9195 39.9318L26.3882 34.9122C24.562 32.8891 21.3564 32.8891 19.5302 34.9122L14.626 40.3448C13.2357 41.885 10.934 42.3418 9.24573 41.1256C3.64119 37.0882 0 30.5564 0 23.1855C0 10.9255 10.0736 0.986816 22.5 0.986816C34.9264 0.986816 45 10.9255 45 23.1855C45 30.265 41.641 36.5705 36.4097 40.6352ZM15.7073 25.6722L19.96 30.6373C21.3107 32.2143 23.6893 32.2143 25.04 30.6373L29.2927 25.6722C30.6579 24.0784 29.9539 21.5559 27.9781 20.9611C24.4001 19.8841 20.5999 19.8841 17.0219 20.9611C15.0461 21.5559 14.3421 24.0784 15.7073 25.6722ZM15.8333 15.1534C15.8333 16.9943 14.341 18.4867 12.5 18.4867C10.6591 18.4867 9.16667 16.9943 9.16667 15.1534C9.16667 13.3124 10.6591 11.8201 12.5 11.8201C14.341 11.8201 15.8333 13.3124 15.8333 15.1534ZM32.5 18.4867C34.341 18.4867 35.8333 16.9943 35.8333 15.1534C35.8333 13.3124 34.341 11.8201 32.5 11.8201C30.6591 11.8201 29.1667 13.3124 29.1667 15.1534C29.1667 16.9943 30.6591 18.4867 32.5 18.4867Z" fill="white"/>
</svg>
