<svg width="22" height="22" viewBox="0 0 22 22" fill="none" xmlns="http://www.w3.org/2000/svg">
<path d="M20.1663 20.163C20.607 19.7275 20.6444 19.0449 20.2785 18.5675L20.2659 18.5062L20.1563 18.399L17.0917 15.4028L17.0486 15.3373L17.0202 15.2941L16.9836 15.2576C16.7535 15.0285 16.4412 14.9015 16.1177 14.9015C15.798 14.9015 15.4894 15.0255 15.2601 15.2494C12.805 17.4959 9.02218 17.617 6.42142 15.5294C3.82303 13.4436 3.21441 9.80435 4.98953 7.0218C6.76776 4.23435 10.3932 3.16172 13.4618 4.53007C16.5264 5.89664 18.0674 9.26525 17.0832 12.3965L17.083 12.3969C16.9516 12.8164 17.0602 13.2708 17.3622 13.5878C17.6631 13.9037 18.1094 14.0355 18.5331 13.9401C18.9569 13.8447 19.3034 13.5338 19.4349 13.1161C20.7823 8.86083 18.7443 4.29035 14.6587 2.35661C10.5769 0.424704 5.65981 1.69554 3.0875 5.35994C0.511945 9.02895 1.06686 13.9879 4.38694 17.0247C7.59515 19.9592 12.4553 20.2493 15.9948 17.7752L18.439 20.1649L18.4398 20.1657C18.9177 20.6308 19.6857 20.6308 20.1636 20.1657L20.1636 20.1657L20.1663 20.163Z" fill="#0D3B66" stroke="#0D3B66"/>
</svg>
